<svg width="17" height="13" viewBox="0 0 17 13" fill="none" xmlns="http://www.w3.org/2000/svg">
<path d="M1.58194 0.747852H15.4181C15.9051 0.747852 16.3 1.14271 16.3 1.62979C16.3 1.92467 16.1526 2.20004 15.9073 2.36361L9.88675 6.37729C9.19948 6.83547 8.99914 6.95658 8.80295 7.0036C8.6038 7.05132 8.3962 7.05132 8.19705 7.0036C8.00086 6.95658 7.80052 6.83547 7.11325 6.37729L1.09273 2.36361C0.847373 2.20004 0.7 1.92467 0.7 1.62979C0.7 1.14271 1.09486 0.747852 1.58194 0.747852Z" stroke="#fff" stroke-width="1.4"/>
<path d="M0.7 4.99888L5.44915 8.16498C5.48631 8.18975 5.52296 8.21421 5.55911 8.23833C6.41457 8.80911 6.9944 9.19599 7.63776 9.35016C8.20456 9.48599 8.79544 9.48599 9.36224 9.35016C10.0056 9.19599 10.5854 8.80911 11.4409 8.23833C11.477 8.21421 11.5137 8.18976 11.5509 8.16498L16.3 4.99888V9.80044C16.3 10.372 16.2995 10.7586 16.2751 11.057C16.2514 11.3473 16.2086 11.4918 16.1583 11.5906C16.0337 11.8352 15.8348 12.0341 15.5902 12.1587C15.4914 12.2091 15.3468 12.2518 15.0566 12.2755C14.7582 12.2999 14.3716 12.3004 13.8 12.3004H3.2C2.6284 12.3004 2.24179 12.2999 1.94341 12.2755C1.65319 12.2518 1.5086 12.2091 1.40981 12.1587C1.1652 12.0341 0.966327 11.8352 0.841692 11.5906C0.791358 11.4918 0.748635 11.3473 0.724924 11.057C0.700544 10.7586 0.7 10.372 0.7 9.80044V4.99888Z" stroke="#fff" stroke-width="1.4"/>
</svg>