<svg width="193" height="37" viewBox="0 0 193 37" fill="none" xmlns="http://www.w3.org/2000/svg">
<path d="M58.0625 28.3047C56.8828 28.3047 55.6953 28.1641 54.5 27.8828C53.3047 27.6016 52.2734 27.2188 51.4062 26.7344L52.6016 24.1914C53.2656 24.543 54.0586 24.8633 54.9805 25.1523C55.9102 25.4336 56.9102 25.5742 57.9805 25.5742C58.6914 25.5742 59.2266 25.4727 59.5859 25.2695C59.9531 25.0664 60.1992 24.7852 60.3242 24.4258C60.457 24.0586 60.5234 23.6406 60.5234 23.1719C60.5234 22.8516 60.4688 22.5586 60.3594 22.293C60.25 22.0195 60.0234 21.7695 59.6797 21.543C59.3438 21.3086 58.8281 21.0898 58.1328 20.8867L55.1797 20.0195C54.2422 19.7383 53.5117 19.3633 52.9883 18.8945C52.4727 18.418 52.1094 17.8633 51.8984 17.2305C51.6953 16.5977 51.5938 15.9141 51.5938 15.1797C51.5938 14.1016 51.8555 13.2109 52.3789 12.5078C52.9102 11.8047 53.6289 11.2812 54.5352 10.9375C55.4492 10.5859 56.4727 10.4102 57.6055 10.4102C58.7461 10.4102 59.7969 10.5195 60.7578 10.7383C61.7188 10.957 62.5977 11.2969 63.3945 11.7578L62.4102 14.207C61.7695 13.9023 61.0703 13.6484 60.3125 13.4453C59.5547 13.2422 58.7539 13.1406 57.9102 13.1406C57.0273 13.1406 56.3242 13.2773 55.8008 13.5508C55.2773 13.8164 55.0156 14.3203 55.0156 15.0625C55.0156 15.6562 55.168 16.1133 55.4727 16.4336C55.7852 16.7539 56.3789 17.0469 57.2539 17.3125L60.1953 18.1914C61.3594 18.543 62.2344 19.1016 62.8203 19.8672C63.4062 20.6328 63.6992 21.6953 63.6992 23.0547C63.6992 24.0312 63.5039 24.918 63.1133 25.7148C62.7227 26.5039 62.1133 27.1328 61.2852 27.6016C60.457 28.0703 59.3828 28.3047 58.0625 28.3047ZM66.9219 10.2461H70.1094V16.6328C70.3828 16.1953 70.8867 15.8398 71.6211 15.5664C72.3633 15.2852 73.1719 15.1445 74.0469 15.1445C75.2578 15.1445 76.207 15.4688 76.8945 16.1172C77.5898 16.7656 77.9375 17.6211 77.9375 18.6836V28H74.75V19.1406C74.75 18.6953 74.6406 18.3594 74.4219 18.1328C74.2031 17.8984 73.9297 17.7383 73.6016 17.6523C73.2734 17.5664 72.9414 17.5234 72.6055 17.5234C72.2227 17.5234 71.8398 17.5938 71.457 17.7344C71.0742 17.8672 70.7539 18.0703 70.4961 18.3438C70.2383 18.6094 70.1094 18.9453 70.1094 19.3516V28H66.9219V10.2461ZM84.6758 28.2695C83.5977 28.2695 82.7188 27.957 82.0391 27.332C81.3672 26.707 81.0312 25.875 81.0312 24.8359C81.0312 24.2422 81.1523 23.7148 81.3945 23.2539C81.6367 22.793 82.0781 22.3672 82.7188 21.9766C83.3594 21.5781 84.2773 21.1914 85.4727 20.8164C86.4492 20.5039 87.168 20.2148 87.6289 19.9492C88.0977 19.6836 88.332 19.332 88.332 18.8945C88.332 18.3867 88.1797 18.0078 87.875 17.7578C87.5781 17.5 87.0703 17.3711 86.3516 17.3711C85.5547 17.3711 85.0273 17.5273 84.7695 17.8398C84.5195 18.1523 84.3945 18.5508 84.3945 19.0352V19.5273H81.4062V19.1523C81.4062 17.9336 81.8125 16.9609 82.625 16.2344C83.4375 15.5078 84.7031 15.1445 86.4219 15.1445C87.6797 15.1445 88.6758 15.3203 89.4102 15.6719C90.1445 16.0234 90.6719 16.5195 90.9922 17.1602C91.3125 17.793 91.4727 18.543 91.4727 19.4102V24.3906C91.4727 24.9609 91.543 25.3359 91.6836 25.5156C91.832 25.6875 92.1016 25.7734 92.4922 25.7734L92.3633 28.0938H91.6953C90.8203 28.0938 90.1406 27.9727 89.6562 27.7305C89.1719 27.4883 88.8164 27.1133 88.5898 26.6055C88.2539 27.0508 87.7461 27.4414 87.0664 27.7773C86.3945 28.1055 85.5977 28.2695 84.6758 28.2695ZM85.7422 26.1484C86.1328 26.1484 86.5898 26.0391 87.1133 25.8203C87.6367 25.6016 88.043 25.2656 88.332 24.8125V21.625C88.1211 21.7969 87.7852 21.9883 87.3242 22.1992C86.8633 22.4023 86.3672 22.6016 85.8359 22.7969C85.1406 23.0547 84.6836 23.3398 84.4648 23.6523C84.2461 23.9648 84.1367 24.3008 84.1367 24.6602C84.1367 25.168 84.2852 25.543 84.582 25.7852C84.8789 26.0273 85.2656 26.1484 85.7422 26.1484ZM95.3516 15.4141H98.5391V16.9141C98.7266 16.5859 99.0547 16.2969 99.5234 16.0469C100 15.7891 100.543 15.5898 101.152 15.4492C101.762 15.3008 102.371 15.2266 102.98 15.2266L102.91 17.9336C102.504 17.957 102.062 18.0078 101.586 18.0859C101.109 18.1641 100.648 18.2695 100.203 18.4023C99.7656 18.5352 99.3945 18.6992 99.0898 18.8945C98.7852 19.0898 98.6016 19.3125 98.5391 19.5625V28H95.3516V15.4141ZM104.68 24.0625V19.1523C104.68 17.8711 105.164 16.8828 106.133 16.1875C107.109 15.4922 108.414 15.1445 110.047 15.1445C111.984 15.1445 113.359 15.5156 114.172 16.2578C114.992 17 115.402 18.0039 115.402 19.2695V22.3164H107.867V24.3672C107.867 25.1094 108.059 25.5781 108.441 25.7734C108.824 25.9609 109.395 26.0547 110.152 26.0547C111.059 26.0547 111.664 25.9297 111.969 25.6797C112.281 25.4219 112.438 24.9062 112.438 24.1328H115.391C115.391 25.6875 114.953 26.7656 114.078 27.3672C113.203 27.9688 111.875 28.2695 110.094 28.2695C109.07 28.2695 108.148 28.1445 107.328 27.8945C106.508 27.6367 105.859 27.2031 105.383 26.5938C104.914 25.9844 104.68 25.1406 104.68 24.0625ZM112.391 20.3711V18.8945C112.391 18.4258 112.289 18.0859 112.086 17.875C111.891 17.6562 111.621 17.5195 111.277 17.4648C110.941 17.4023 110.559 17.3711 110.129 17.3711C109.488 17.3711 108.949 17.4688 108.512 17.6641C108.082 17.8516 107.867 18.2812 107.867 18.9531V20.3711H112.391ZM130.812 28.3047C129.633 28.3047 128.445 28.1641 127.25 27.8828C126.055 27.6016 125.023 27.2188 124.156 26.7344L125.352 24.1914C126.016 24.543 126.809 24.8633 127.73 25.1523C128.66 25.4336 129.66 25.5742 130.73 25.5742C131.441 25.5742 131.977 25.4727 132.336 25.2695C132.703 25.0664 132.949 24.7852 133.074 24.4258C133.207 24.0586 133.273 23.6406 133.273 23.1719C133.273 22.8516 133.219 22.5586 133.109 22.293C133 22.0195 132.773 21.7695 132.43 21.543C132.094 21.3086 131.578 21.0898 130.883 20.8867L127.93 20.0195C126.992 19.7383 126.262 19.3633 125.738 18.8945C125.223 18.418 124.859 17.8633 124.648 17.2305C124.445 16.5977 124.344 15.9141 124.344 15.1797C124.344 14.1016 124.605 13.2109 125.129 12.5078C125.66 11.8047 126.379 11.2812 127.285 10.9375C128.199 10.5859 129.223 10.4102 130.355 10.4102C131.496 10.4102 132.547 10.5195 133.508 10.7383C134.469 10.957 135.348 11.2969 136.145 11.7578L135.16 14.207C134.52 13.9023 133.82 13.6484 133.062 13.4453C132.305 13.2422 131.504 13.1406 130.66 13.1406C129.777 13.1406 129.074 13.2773 128.551 13.5508C128.027 13.8164 127.766 14.3203 127.766 15.0625C127.766 15.6562 127.918 16.1133 128.223 16.4336C128.535 16.7539 129.129 17.0469 130.004 17.3125L132.945 18.1914C134.109 18.543 134.984 19.1016 135.57 19.8672C136.156 20.6328 136.449 21.6953 136.449 23.0547C136.449 24.0312 136.254 24.918 135.863 25.7148C135.473 26.5039 134.863 27.1328 134.035 27.6016C133.207 28.0703 132.133 28.3047 130.812 28.3047ZM139.648 32.8047V15.4141H141.875L142.191 16.2344C142.605 15.9297 143.109 15.6719 143.703 15.4609C144.297 15.25 144.965 15.1445 145.707 15.1445C147.184 15.1445 148.336 15.5195 149.164 16.2695C149.992 17.0117 150.406 17.9883 150.406 19.1992V24.1797C150.406 24.8984 150.223 25.5703 149.855 26.1953C149.488 26.8125 148.922 27.3125 148.156 27.6953C147.398 28.0781 146.426 28.2695 145.238 28.2695C144.738 28.2695 144.289 28.2227 143.891 28.1289C143.492 28.043 143.141 27.9336 142.836 27.8008V32.8047H139.648ZM144.969 26.0547C145.695 26.0547 146.25 25.9141 146.633 25.6328C147.023 25.3516 147.219 24.8906 147.219 24.25V19.1523C147.219 18.5195 147.027 18.0664 146.645 17.793C146.27 17.5117 145.746 17.3711 145.074 17.3711C144.566 17.3711 144.109 17.457 143.703 17.6289C143.305 17.793 143.016 17.9648 142.836 18.1445V25.5039C143.031 25.6289 143.305 25.7539 143.656 25.8789C144.016 25.9961 144.453 26.0547 144.969 26.0547ZM156.816 28.2695C155.738 28.2695 154.859 27.957 154.18 27.332C153.508 26.707 153.172 25.875 153.172 24.8359C153.172 24.2422 153.293 23.7148 153.535 23.2539C153.777 22.793 154.219 22.3672 154.859 21.9766C155.5 21.5781 156.418 21.1914 157.613 20.8164C158.59 20.5039 159.309 20.2148 159.77 19.9492C160.238 19.6836 160.473 19.332 160.473 18.8945C160.473 18.3867 160.32 18.0078 160.016 17.7578C159.719 17.5 159.211 17.3711 158.492 17.3711C157.695 17.3711 157.168 17.5273 156.91 17.8398C156.66 18.1523 156.535 18.5508 156.535 19.0352V19.5273H153.547V19.1523C153.547 17.9336 153.953 16.9609 154.766 16.2344C155.578 15.5078 156.844 15.1445 158.562 15.1445C159.82 15.1445 160.816 15.3203 161.551 15.6719C162.285 16.0234 162.812 16.5195 163.133 17.1602C163.453 17.793 163.613 18.543 163.613 19.4102V24.3906C163.613 24.9609 163.684 25.3359 163.824 25.5156C163.973 25.6875 164.242 25.7734 164.633 25.7734L164.504 28.0938H163.836C162.961 28.0938 162.281 27.9727 161.797 27.7305C161.312 27.4883 160.957 27.1133 160.73 26.6055C160.395 27.0508 159.887 27.4414 159.207 27.7773C158.535 28.1055 157.738 28.2695 156.816 28.2695ZM157.883 26.1484C158.273 26.1484 158.73 26.0391 159.254 25.8203C159.777 25.6016 160.184 25.2656 160.473 24.8125V21.625C160.262 21.7969 159.926 21.9883 159.465 22.1992C159.004 22.4023 158.508 22.6016 157.977 22.7969C157.281 23.0547 156.824 23.3398 156.605 23.6523C156.387 23.9648 156.277 24.3008 156.277 24.6602C156.277 25.168 156.426 25.543 156.723 25.7852C157.02 26.0273 157.406 26.1484 157.883 26.1484ZM172.332 28.2695C170.902 28.2695 169.809 28.082 169.051 27.707C168.293 27.3242 167.773 26.8203 167.492 26.1953C167.211 25.5703 167.07 24.8945 167.07 24.168V19.1289C167.07 17.8711 167.527 16.8945 168.441 16.1992C169.355 15.4961 170.637 15.1445 172.285 15.1445C173.418 15.1445 174.363 15.2852 175.121 15.5664C175.887 15.8398 176.465 16.3164 176.855 16.9961C177.246 17.668 177.441 18.6055 177.441 19.8086L174.441 20.043C174.441 19.2773 174.383 18.707 174.266 18.332C174.156 17.9492 173.953 17.6953 173.656 17.5703C173.367 17.4375 172.949 17.3711 172.402 17.3711C171.723 17.3711 171.195 17.5039 170.82 17.7695C170.445 18.0352 170.258 18.4922 170.258 19.1406V24.2266C170.258 24.8984 170.434 25.3672 170.785 25.6328C171.137 25.8984 171.676 26.0312 172.402 26.0312C172.957 26.0312 173.383 25.9727 173.68 25.8555C173.977 25.7383 174.18 25.5039 174.289 25.1523C174.398 24.793 174.453 24.2578 174.453 23.5469H177.43C177.43 24.7031 177.281 25.6289 176.984 26.3242C176.695 27.0117 176.18 27.5078 175.438 27.8125C174.703 28.1172 173.668 28.2695 172.332 28.2695ZM180.102 24.0625V19.1523C180.102 17.8711 180.586 16.8828 181.555 16.1875C182.531 15.4922 183.836 15.1445 185.469 15.1445C187.406 15.1445 188.781 15.5156 189.594 16.2578C190.414 17 190.824 18.0039 190.824 19.2695V22.3164H183.289V24.3672C183.289 25.1094 183.48 25.5781 183.863 25.7734C184.246 25.9609 184.816 26.0547 185.574 26.0547C186.48 26.0547 187.086 25.9297 187.391 25.6797C187.703 25.4219 187.859 24.9062 187.859 24.1328H190.812C190.812 25.6875 190.375 26.7656 189.5 27.3672C188.625 27.9688 187.297 28.2695 185.516 28.2695C184.492 28.2695 183.57 28.1445 182.75 27.8945C181.93 27.6367 181.281 27.2031 180.805 26.5938C180.336 25.9844 180.102 25.1406 180.102 24.0625ZM187.812 20.3711V18.8945C187.812 18.4258 187.711 18.0859 187.508 17.875C187.312 17.6562 187.043 17.5195 186.699 17.4648C186.363 17.4023 185.98 17.3711 185.551 17.3711C184.91 17.3711 184.371 17.4688 183.934 17.6641C183.504 17.8516 183.289 18.2812 183.289 18.9531V20.3711H187.812Z" fill="#313131"/>
<rect width="38.8048" height="29.4217" rx="10" fill="#2E2E2E"/>
<path d="M7.67073 29.4219C3.05118 29.4219 0 32.5423 0 32.5423V27.6387V23.6267V19.6146C0 19.6146 12.2903 29.4219 7.67073 29.4219Z" fill="#2E2E2E"/>
<rect width="32.939" height="26.6004" rx="9" transform="matrix(-1 0 0 1 41.5122 7.57831)" fill="#9C9C9C"/>
<path d="M35.001 34.179C38.9222 34.179 41.5122 37.0002 41.5122 37.0002V32.5668V28.9395V25.3122C41.5122 25.3122 31.0797 34.179 35.001 34.179Z" fill="#9C9C9C"/>
<rect x="15.3413" y="12.9283" width="18.9512" height="1.78313" rx="0.891566" fill="#DB2727"/>
<rect x="15.3413" y="27.6389" width="18.9512" height="1.78313" rx="0.891566" fill="#DB2727"/>
<rect x="15.3413" y="22.735" width="18.9512" height="1.78313" rx="0.891566" fill="#DB2727"/>
<rect x="15.3413" y="17.8309" width="18.9512" height="1.78313" rx="0.891566" fill="#DB2727"/>
</svg>
