<svg width="479" height="87" viewBox="0 0 479 87" fill="none" xmlns="http://www.w3.org/2000/svg">
<path d="M121.5 66.8125C118.354 66.8125 115.188 66.4375 112 65.6875C108.812 64.9375 106.062 63.9167 103.75 62.625L106.938 55.8438C108.708 56.7812 110.823 57.6354 113.281 58.4062C115.76 59.1562 118.427 59.5312 121.281 59.5312C123.177 59.5312 124.604 59.2604 125.562 58.7188C126.542 58.1771 127.198 57.4271 127.531 56.4688C127.885 55.4896 128.062 54.375 128.062 53.125C128.062 52.2708 127.917 51.4896 127.625 50.7812C127.333 50.0521 126.729 49.3854 125.812 48.7812C124.917 48.1562 123.542 47.5729 121.688 47.0312L113.812 44.7188C111.312 43.9688 109.365 42.9688 107.969 41.7188C106.594 40.4479 105.625 38.9688 105.062 37.2812C104.521 35.5938 104.25 33.7708 104.25 31.8125C104.25 28.9375 104.948 26.5625 106.344 24.6875C107.76 22.8125 109.677 21.4167 112.094 20.5C114.531 19.5625 117.26 19.0938 120.281 19.0938C123.323 19.0938 126.125 19.3854 128.688 19.9688C131.25 20.5521 133.594 21.4583 135.719 22.6875L133.094 29.2188C131.385 28.4062 129.521 27.7292 127.5 27.1875C125.479 26.6458 123.344 26.375 121.094 26.375C118.74 26.375 116.865 26.7396 115.469 27.4688C114.073 28.1771 113.375 29.5208 113.375 31.5C113.375 33.0833 113.781 34.3021 114.594 35.1562C115.427 36.0104 117.01 36.7917 119.344 37.5L127.188 39.8438C130.292 40.7812 132.625 42.2708 134.188 44.3125C135.75 46.3542 136.531 49.1875 136.531 52.8125C136.531 55.4167 136.01 57.7812 134.969 59.9062C133.927 62.0104 132.302 63.6875 130.094 64.9375C127.885 66.1875 125.021 66.8125 121.5 66.8125ZM145.125 18.6562H153.625V35.6875C154.354 34.5208 155.698 33.5729 157.656 32.8438C159.635 32.0938 161.792 31.7188 164.125 31.7188C167.354 31.7188 169.885 32.5833 171.719 34.3125C173.573 36.0417 174.5 38.3229 174.5 41.1562V66H166V42.375C166 41.1875 165.708 40.2917 165.125 39.6875C164.542 39.0625 163.812 38.6354 162.938 38.4062C162.062 38.1771 161.177 38.0625 160.281 38.0625C159.26 38.0625 158.24 38.25 157.219 38.625C156.198 38.9792 155.344 39.5208 154.656 40.25C153.969 40.9583 153.625 41.8542 153.625 42.9375V66H145.125V18.6562ZM192.469 66.7188C189.594 66.7188 187.25 65.8854 185.438 64.2188C183.646 62.5521 182.75 60.3333 182.75 57.5625C182.75 55.9792 183.073 54.5729 183.719 53.3438C184.365 52.1146 185.542 50.9792 187.25 49.9375C188.958 48.875 191.406 47.8438 194.594 46.8438C197.198 46.0104 199.115 45.2396 200.344 44.5312C201.594 43.8229 202.219 42.8854 202.219 41.7188C202.219 40.3646 201.812 39.3542 201 38.6875C200.208 38 198.854 37.6562 196.938 37.6562C194.812 37.6562 193.406 38.0729 192.719 38.9062C192.052 39.7396 191.719 40.8021 191.719 42.0938V43.4062H183.75V42.4062C183.75 39.1562 184.833 36.5625 187 34.625C189.167 32.6875 192.542 31.7188 197.125 31.7188C200.479 31.7188 203.135 32.1875 205.094 33.125C207.052 34.0625 208.458 35.3854 209.312 37.0938C210.167 38.7812 210.594 40.7812 210.594 43.0938V56.375C210.594 57.8958 210.781 58.8958 211.156 59.375C211.552 59.8333 212.271 60.0625 213.312 60.0625L212.969 66.25H211.188C208.854 66.25 207.042 65.9271 205.75 65.2812C204.458 64.6354 203.51 63.6354 202.906 62.2812C202.01 63.4688 200.656 64.5104 198.844 65.4062C197.052 66.2812 194.927 66.7188 192.469 66.7188ZM195.312 61.0625C196.354 61.0625 197.573 60.7708 198.969 60.1875C200.365 59.6042 201.448 58.7083 202.219 57.5V49C201.656 49.4583 200.76 49.9688 199.531 50.5312C198.302 51.0729 196.979 51.6042 195.562 52.125C193.708 52.8125 192.49 53.5729 191.906 54.4062C191.323 55.2396 191.031 56.1354 191.031 57.0938C191.031 58.4479 191.427 59.4479 192.219 60.0938C193.01 60.7396 194.042 61.0625 195.312 61.0625ZM220.938 32.4375H229.438V36.4375C229.938 35.5625 230.812 34.7917 232.062 34.125C233.333 33.4375 234.781 32.9062 236.406 32.5312C238.031 32.1354 239.656 31.9375 241.281 31.9375L241.094 39.1562C240.01 39.2188 238.833 39.3542 237.562 39.5625C236.292 39.7708 235.062 40.0521 233.875 40.4062C232.708 40.7604 231.719 41.1979 230.906 41.7188C230.094 42.2396 229.604 42.8333 229.438 43.5V66H220.938V32.4375ZM245.812 55.5V42.4062C245.812 38.9896 247.104 36.3542 249.688 34.5C252.292 32.6458 255.771 31.7188 260.125 31.7188C265.292 31.7188 268.958 32.7083 271.125 34.6875C273.312 36.6667 274.406 39.3438 274.406 42.7188V50.8438H254.312V56.3125C254.312 58.2917 254.823 59.5417 255.844 60.0625C256.865 60.5625 258.385 60.8125 260.406 60.8125C262.823 60.8125 264.438 60.4792 265.25 59.8125C266.083 59.125 266.5 57.75 266.5 55.6875H274.375C274.375 59.8333 273.208 62.7083 270.875 64.3125C268.542 65.9167 265 66.7188 260.25 66.7188C257.521 66.7188 255.062 66.3854 252.875 65.7188C250.688 65.0312 248.958 63.875 247.688 62.25C246.438 60.625 245.812 58.375 245.812 55.5ZM266.375 45.6562V41.7188C266.375 40.4688 266.104 39.5625 265.562 39C265.042 38.4167 264.323 38.0521 263.406 37.9062C262.51 37.7396 261.49 37.6562 260.344 37.6562C258.635 37.6562 257.198 37.9167 256.031 38.4375C254.885 38.9375 254.312 40.0833 254.312 41.875V45.6562H266.375ZM315.5 66.8125C312.354 66.8125 309.188 66.4375 306 65.6875C302.812 64.9375 300.062 63.9167 297.75 62.625L300.938 55.8438C302.708 56.7812 304.823 57.6354 307.281 58.4062C309.76 59.1562 312.427 59.5312 315.281 59.5312C317.177 59.5312 318.604 59.2604 319.562 58.7188C320.542 58.1771 321.198 57.4271 321.531 56.4688C321.885 55.4896 322.062 54.375 322.062 53.125C322.062 52.2708 321.917 51.4896 321.625 50.7812C321.333 50.0521 320.729 49.3854 319.812 48.7812C318.917 48.1562 317.542 47.5729 315.688 47.0312L307.812 44.7188C305.312 43.9688 303.365 42.9688 301.969 41.7188C300.594 40.4479 299.625 38.9688 299.062 37.2812C298.521 35.5938 298.25 33.7708 298.25 31.8125C298.25 28.9375 298.948 26.5625 300.344 24.6875C301.76 22.8125 303.677 21.4167 306.094 20.5C308.531 19.5625 311.26 19.0938 314.281 19.0938C317.323 19.0938 320.125 19.3854 322.688 19.9688C325.25 20.5521 327.594 21.4583 329.719 22.6875L327.094 29.2188C325.385 28.4062 323.521 27.7292 321.5 27.1875C319.479 26.6458 317.344 26.375 315.094 26.375C312.74 26.375 310.865 26.7396 309.469 27.4688C308.073 28.1771 307.375 29.5208 307.375 31.5C307.375 33.0833 307.781 34.3021 308.594 35.1562C309.427 36.0104 311.01 36.7917 313.344 37.5L321.188 39.8438C324.292 40.7812 326.625 42.2708 328.188 44.3125C329.75 46.3542 330.531 49.1875 330.531 52.8125C330.531 55.4167 330.01 57.7812 328.969 59.9062C327.927 62.0104 326.302 63.6875 324.094 64.9375C321.885 66.1875 319.021 66.8125 315.5 66.8125ZM339.062 78.8125V32.4375H345L345.844 34.625C346.948 33.8125 348.292 33.125 349.875 32.5625C351.458 32 353.24 31.7188 355.219 31.7188C359.156 31.7188 362.229 32.7188 364.438 34.7188C366.646 36.6979 367.75 39.3021 367.75 42.5312V55.8125C367.75 57.7292 367.26 59.5208 366.281 61.1875C365.302 62.8333 363.792 64.1667 361.75 65.1875C359.729 66.2083 357.135 66.7188 353.969 66.7188C352.635 66.7188 351.438 66.5938 350.375 66.3438C349.312 66.1146 348.375 65.8229 347.562 65.4688V78.8125H339.062ZM353.25 60.8125C355.188 60.8125 356.667 60.4375 357.688 59.6875C358.729 58.9375 359.25 57.7083 359.25 56V42.4062C359.25 40.7188 358.74 39.5104 357.719 38.7812C356.719 38.0312 355.323 37.6562 353.531 37.6562C352.177 37.6562 350.958 37.8854 349.875 38.3438C348.812 38.7812 348.042 39.2396 347.562 39.7188V59.3438C348.083 59.6771 348.812 60.0104 349.75 60.3438C350.708 60.6562 351.875 60.8125 353.25 60.8125ZM384.844 66.7188C381.969 66.7188 379.625 65.8854 377.812 64.2188C376.021 62.5521 375.125 60.3333 375.125 57.5625C375.125 55.9792 375.448 54.5729 376.094 53.3438C376.74 52.1146 377.917 50.9792 379.625 49.9375C381.333 48.875 383.781 47.8438 386.969 46.8438C389.573 46.0104 391.49 45.2396 392.719 44.5312C393.969 43.8229 394.594 42.8854 394.594 41.7188C394.594 40.3646 394.188 39.3542 393.375 38.6875C392.583 38 391.229 37.6562 389.312 37.6562C387.188 37.6562 385.781 38.0729 385.094 38.9062C384.427 39.7396 384.094 40.8021 384.094 42.0938V43.4062H376.125V42.4062C376.125 39.1562 377.208 36.5625 379.375 34.625C381.542 32.6875 384.917 31.7188 389.5 31.7188C392.854 31.7188 395.51 32.1875 397.469 33.125C399.427 34.0625 400.833 35.3854 401.688 37.0938C402.542 38.7812 402.969 40.7812 402.969 43.0938V56.375C402.969 57.8958 403.156 58.8958 403.531 59.375C403.927 59.8333 404.646 60.0625 405.688 60.0625L405.344 66.25H403.562C401.229 66.25 399.417 65.9271 398.125 65.2812C396.833 64.6354 395.885 63.6354 395.281 62.2812C394.385 63.4688 393.031 64.5104 391.219 65.4062C389.427 66.2812 387.302 66.7188 384.844 66.7188ZM387.688 61.0625C388.729 61.0625 389.948 60.7708 391.344 60.1875C392.74 59.6042 393.823 58.7083 394.594 57.5V49C394.031 49.4583 393.135 49.9688 391.906 50.5312C390.677 51.0729 389.354 51.6042 387.938 52.125C386.083 52.8125 384.865 53.5729 384.281 54.4062C383.698 55.2396 383.406 56.1354 383.406 57.0938C383.406 58.4479 383.802 59.4479 384.594 60.0938C385.385 60.7396 386.417 61.0625 387.688 61.0625ZM426.219 66.7188C422.406 66.7188 419.49 66.2188 417.469 65.2188C415.448 64.1979 414.062 62.8542 413.312 61.1875C412.562 59.5208 412.188 57.7188 412.188 55.7812V42.3438C412.188 38.9896 413.406 36.3854 415.844 34.5312C418.281 32.6562 421.698 31.7188 426.094 31.7188C429.115 31.7188 431.635 32.0938 433.656 32.8438C435.698 33.5729 437.24 34.8438 438.281 36.6562C439.323 38.4479 439.844 40.9479 439.844 44.1562L431.844 44.7812C431.844 42.7396 431.688 41.2188 431.375 40.2188C431.083 39.1979 430.542 38.5208 429.75 38.1875C428.979 37.8333 427.865 37.6562 426.406 37.6562C424.594 37.6562 423.188 38.0104 422.188 38.7188C421.188 39.4271 420.688 40.6458 420.688 42.375V55.9375C420.688 57.7292 421.156 58.9792 422.094 59.6875C423.031 60.3958 424.469 60.75 426.406 60.75C427.885 60.75 429.021 60.5938 429.812 60.2812C430.604 59.9688 431.146 59.3438 431.438 58.4062C431.729 57.4479 431.875 56.0208 431.875 54.125H439.812C439.812 57.2083 439.417 59.6771 438.625 61.5312C437.854 63.3646 436.479 64.6875 434.5 65.5C432.542 66.3125 429.781 66.7188 426.219 66.7188ZM446.938 55.5V42.4062C446.938 38.9896 448.229 36.3542 450.812 34.5C453.417 32.6458 456.896 31.7188 461.25 31.7188C466.417 31.7188 470.083 32.7083 472.25 34.6875C474.438 36.6667 475.531 39.3438 475.531 42.7188V50.8438H455.438V56.3125C455.438 58.2917 455.948 59.5417 456.969 60.0625C457.99 60.5625 459.51 60.8125 461.531 60.8125C463.948 60.8125 465.562 60.4792 466.375 59.8125C467.208 59.125 467.625 57.75 467.625 55.6875H475.5C475.5 59.8333 474.333 62.7083 472 64.3125C469.667 65.9167 466.125 66.7188 461.375 66.7188C458.646 66.7188 456.188 66.3854 454 65.7188C451.812 65.0312 450.083 63.875 448.812 62.25C447.562 60.625 446.938 58.375 446.938 55.5ZM467.5 45.6562V41.7188C467.5 40.4688 467.229 39.5625 466.688 39C466.167 38.4167 465.448 38.0521 464.531 37.9062C463.635 37.7396 462.615 37.6562 461.469 37.6562C459.76 37.6562 458.323 37.9167 457.156 38.4375C456.01 38.9375 455.438 40.0833 455.438 41.875V45.6562H467.5Z" fill="#313131"/>
<rect width="86" height="65.2048" rx="18" fill="#2E2E2E"/>
<path d="M17 65.2048C6.76208 65.2048 0 72.1205 0 72.1205V61.253V52.3614V43.4698C0 43.4698 27.2379 65.2048 17 65.2048Z" fill="#2E2E2E"/>
<g filter="url(#filter0_d_3_31)">
<rect width="73" height="58.9523" rx="18" transform="matrix(-1 0 0 1 92 16.7952)" fill="#9C9C9C"/>
<path d="M77.5698 75.7475C86.2601 75.7475 92 82 92 82V72.1746V64.1357V56.0967C92 56.0967 68.8794 75.7475 77.5698 75.7475Z" fill="#9C9C9C"/>
</g>
<rect x="34" y="28.6506" width="42" height="3.95181" rx="1.9759" fill="#2E2E2E"/>
<rect x="34" y="61.253" width="42" height="3.95181" rx="1.9759" fill="#2E2E2E"/>
<rect x="34" y="50.3856" width="42" height="3.95181" rx="1.9759" fill="#2E2E2E"/>
<rect x="34" y="39.5181" width="42" height="3.95181" rx="1.9759" fill="#2E2E2E"/>
<defs>
<filter id="filter0_d_3_31" x="13.3" y="16.0952" width="78.7" height="70.6048" filterUnits="userSpaceOnUse" color-interpolation-filters="sRGB">
<feFlood flood-opacity="0" result="BackgroundImageFix"/>
<feColorMatrix in="SourceAlpha" type="matrix" values="0 0 0 0 0 0 0 0 0 0 0 0 0 0 0 0 0 0 127 0" result="hardAlpha"/>
<feOffset dx="-3" dy="2"/>
<feGaussianBlur stdDeviation="1.35"/>
<feComposite in2="hardAlpha" operator="out"/>
<feColorMatrix type="matrix" values="0 0 0 0 0.781885 0 0 0 0 0.781885 0 0 0 0 0.781885 0 0 0 1 0"/>
<feBlend mode="normal" in2="BackgroundImageFix" result="effect1_dropShadow_3_31"/>
<feBlend mode="normal" in="SourceGraphic" in2="effect1_dropShadow_3_31" result="shape"/>
</filter>
</defs>
</svg>
