<svg width="42" height="37" viewBox="0 0 42 37" fill="none" xmlns="http://www.w3.org/2000/svg">
<rect width="38.8048" height="29.4217" rx="8" fill="#2E2E2E"/>
<path d="M7.67073 29.4219C3.05118 29.4219 0 32.5423 0 32.5423V27.6387V23.6267V19.6146C0 19.6146 12.2903 29.4219 7.67073 29.4219Z" fill="#2E2E2E"/>
<rect width="32.939" height="26.6004" rx="7" transform="matrix(-1 0 0 1 41.5122 7.57831)" fill="#9C9C9C"/>
<path d="M35.001 34.179C38.9222 34.179 41.5122 37.0002 41.5122 37.0002V32.5668V28.9395V25.3122C41.5122 25.3122 31.0797 34.179 35.001 34.179Z" fill="#9C9C9C"/>
<path d="M15 13.5C15 12.6716 15.6716 12 16.5 12H32.5C33.3284 12 34 12.6716 34 13.5C34 14.3284 33.3284 15 32.5 15H16.5C15.6716 15 15 14.3284 15 13.5Z" fill="white"/>
<path d="M15 20.5C15 19.6716 15.6716 19 16.5 19H32.5C33.3284 19 34 19.6716 34 20.5C34 21.3284 33.3284 22 32.5 22H16.5C15.6716 22 15 21.3284 15 20.5Z" fill="white"/>
<path d="M15 27.5C15 26.6716 15.6716 26 16.5 26H32.5C33.3284 26 34 26.6716 34 27.5C34 28.3284 33.3284 29 32.5 29H16.5C15.6716 29 15 28.3284 15 27.5Z" fill="white"/>
</svg>
