<svg width="92" height="87" viewBox="0 0 92 87" fill="none" xmlns="http://www.w3.org/2000/svg">
<rect width="86" height="65.2048" rx="18" fill="#2E2E2E"/>
<path d="M17 65.2048C6.76208 65.2048 0 72.1205 0 72.1205V61.253V52.3614V43.4698C0 43.4698 27.2379 65.2048 17 65.2048Z" fill="#2E2E2E"/>
<g filter="url(#filter0_d_3_18)">
<rect width="73" height="58.9523" rx="18" transform="matrix(-1 0 0 1 92 16.7952)" fill="#9C9C9C"/>
<path d="M77.5698 75.7475C86.2601 75.7475 92 82 92 82V72.1746V64.1357V56.0967C92 56.0967 68.8794 75.7475 77.5698 75.7475Z" fill="#9C9C9C"/>
</g>
<rect x="34" y="28.6506" width="42" height="3.95181" rx="1.9759" fill="#2E2E2E"/>
<rect x="34" y="61.253" width="42" height="3.95181" rx="1.9759" fill="#2E2E2E"/>
<rect x="34" y="50.3856" width="42" height="3.95181" rx="1.9759" fill="#2E2E2E"/>
<rect x="34" y="39.5181" width="42" height="3.95181" rx="1.9759" fill="#2E2E2E"/>
<defs>
<filter id="filter0_d_3_18" x="13.3" y="16.0952" width="78.7" height="70.6048" filterUnits="userSpaceOnUse" color-interpolation-filters="sRGB">
<feFlood flood-opacity="0" result="BackgroundImageFix"/>
<feColorMatrix in="SourceAlpha" type="matrix" values="0 0 0 0 0 0 0 0 0 0 0 0 0 0 0 0 0 0 127 0" result="hardAlpha"/>
<feOffset dx="-3" dy="2"/>
<feGaussianBlur stdDeviation="1.35"/>
<feComposite in2="hardAlpha" operator="out"/>
<feColorMatrix type="matrix" values="0 0 0 0 0.781885 0 0 0 0 0.781885 0 0 0 0 0.781885 0 0 0 1 0"/>
<feBlend mode="normal" in2="BackgroundImageFix" result="effect1_dropShadow_3_18"/>
<feBlend mode="normal" in="SourceGraphic" in2="effect1_dropShadow_3_18" result="shape"/>
</filter>
</defs>
</svg>
